<svg xmlns="http://www.w3.org/2000/svg" version="1.1" xmlns:xlink="http://www.w3.org/1999/xlink" xmlns:svgjs="http://svgjs.com/svgjs" width="400" height="150" preserveAspectRatio="none" viewBox="0 0 400 150"><g mask="url(&quot;#SvgjsMask1008&quot;)" fill="none"><rect width="400" height="150" x="0" y="0" fill="rgba(255, 255, 255, 1)"></rect><path d="M250.19 164.17C288.49 154.85 304.45 51.72 360.56 51.55 416.67 51.38 438.13 120.46 470.93 123.55" stroke="rgba(127, 84, 150, 0.16)" stroke-width="2"></path><path d="M239.05 156.3C272.4 152.81 293.49 80.88 349.83 80.71 406.16 80.54 431.6 114.81 460.6 115.21" stroke="rgba(127, 84, 150, 0.16)" stroke-width="2"></path><path d="M102.43 164.47C146.56 162.36 180.85 86.09 260.79 85.99 340.73 85.89 378.63 120.29 419.15 120.49" stroke="rgba(127, 84, 150, 0.16)" stroke-width="2"></path><path d="M51.11 179.87C96.67 179.51 135.86 135.58 227.64 134.6 319.42 133.62 357.91 79.75 404.17 79.1" stroke="rgba(127, 84, 150, 0.16)" stroke-width="2"></path><path d="M123.49 174.11C155.38 170.17 144.12 99.92 227.07 98.02 310.03 96.12 381.47 57.71 434.24 57.52" stroke="rgba(127, 84, 150, 0.16)" stroke-width="2"></path></g><defs><mask id="SvgjsMask1008"><rect width="400" height="150" fill="#ffffff"></rect></mask></defs></svg>