<svg xmlns="http://www.w3.org/2000/svg" version="1.1" xmlns:xlink="http://www.w3.org/1999/xlink" xmlns:svgjs="http://svgjs.com/svgjs" width="1440" height="560" preserveAspectRatio="none" viewBox="0 0 1440 560"><g mask="url(&quot;#SvgjsMask1077&quot;)" fill="none"><rect width="1440" height="560" x="0" y="0" fill="rgba(165, 128, 181, 0.74)"></rect><path d="M50.07 -19.45L115.02 18.05L115.02 93.05L50.07 130.55L-14.88 93.05L-14.88 18.05zM115.02 93.05L179.98 130.55L179.98 205.55L115.02 243.05L50.07 205.55L50.07 130.55zM179.98 205.55L244.93 243.05L244.93 318.05L179.98 355.55L115.02 318.05L115.02 243.05zM309.88 -19.45L374.84 18.05L374.84 93.05L309.88 130.55L244.93 93.05L244.93 18.05zM504.75 93.05L569.7 130.55L569.7 205.55L504.75 243.05L439.79 205.55L439.79 130.55zM569.7 -19.45L634.65 18.05L634.65 93.05L569.7 130.55L504.75 93.05L504.75 18.05zM634.65 543.05L699.61 580.55L699.61 655.55L634.65 693.05L569.7 655.55L569.7 580.55zM894.47 93.05L959.42 130.55L959.42 205.55L894.47 243.05L829.51 205.55L829.51 130.55zM1544.01 543.05L1608.96 580.55L1608.96 655.55L1544.01 693.05L1479.05 655.55L1479.05 580.55z" stroke="rgba(223, 171, 244, 0.63)" stroke-width="2"></path><path d="M42.57 -19.45 a7.5 7.5 0 1 0 15 0 a7.5 7.5 0 1 0 -15 0zM107.52 18.05 a7.5 7.5 0 1 0 15 0 a7.5 7.5 0 1 0 -15 0zM107.52 93.05 a7.5 7.5 0 1 0 15 0 a7.5 7.5 0 1 0 -15 0zM42.57 130.55 a7.5 7.5 0 1 0 15 0 a7.5 7.5 0 1 0 -15 0zM-22.38 93.05 a7.5 7.5 0 1 0 15 0 a7.5 7.5 0 1 0 -15 0zM-22.38 18.05 a7.5 7.5 0 1 0 15 0 a7.5 7.5 0 1 0 -15 0zM172.48 130.55 a7.5 7.5 0 1 0 15 0 a7.5 7.5 0 1 0 -15 0zM172.48 205.55 a7.5 7.5 0 1 0 15 0 a7.5 7.5 0 1 0 -15 0zM107.52 243.05 a7.5 7.5 0 1 0 15 0 a7.5 7.5 0 1 0 -15 0zM42.57 205.55 a7.5 7.5 0 1 0 15 0 a7.5 7.5 0 1 0 -15 0zM237.43 243.05 a7.5 7.5 0 1 0 15 0 a7.5 7.5 0 1 0 -15 0zM237.43 318.05 a7.5 7.5 0 1 0 15 0 a7.5 7.5 0 1 0 -15 0zM172.48 355.55 a7.5 7.5 0 1 0 15 0 a7.5 7.5 0 1 0 -15 0zM107.52 318.05 a7.5 7.5 0 1 0 15 0 a7.5 7.5 0 1 0 -15 0zM302.38 -19.45 a7.5 7.5 0 1 0 15 0 a7.5 7.5 0 1 0 -15 0zM367.34 18.05 a7.5 7.5 0 1 0 15 0 a7.5 7.5 0 1 0 -15 0zM367.34 93.05 a7.5 7.5 0 1 0 15 0 a7.5 7.5 0 1 0 -15 0zM302.38 130.55 a7.5 7.5 0 1 0 15 0 a7.5 7.5 0 1 0 -15 0zM237.43 93.05 a7.5 7.5 0 1 0 15 0 a7.5 7.5 0 1 0 -15 0zM237.43 18.05 a7.5 7.5 0 1 0 15 0 a7.5 7.5 0 1 0 -15 0zM497.25 93.05 a7.5 7.5 0 1 0 15 0 a7.5 7.5 0 1 0 -15 0zM562.2 130.55 a7.5 7.5 0 1 0 15 0 a7.5 7.5 0 1 0 -15 0zM562.2 205.55 a7.5 7.5 0 1 0 15 0 a7.5 7.5 0 1 0 -15 0zM497.25 243.05 a7.5 7.5 0 1 0 15 0 a7.5 7.5 0 1 0 -15 0zM432.29 205.55 a7.5 7.5 0 1 0 15 0 a7.5 7.5 0 1 0 -15 0zM432.29 130.55 a7.5 7.5 0 1 0 15 0 a7.5 7.5 0 1 0 -15 0zM562.2 -19.45 a7.5 7.5 0 1 0 15 0 a7.5 7.5 0 1 0 -15 0zM627.15 18.05 a7.5 7.5 0 1 0 15 0 a7.5 7.5 0 1 0 -15 0zM627.15 93.05 a7.5 7.5 0 1 0 15 0 a7.5 7.5 0 1 0 -15 0zM497.25 18.05 a7.5 7.5 0 1 0 15 0 a7.5 7.5 0 1 0 -15 0zM627.15 543.05 a7.5 7.5 0 1 0 15 0 a7.5 7.5 0 1 0 -15 0zM692.11 580.55 a7.5 7.5 0 1 0 15 0 a7.5 7.5 0 1 0 -15 0zM692.11 655.55 a7.5 7.5 0 1 0 15 0 a7.5 7.5 0 1 0 -15 0zM627.15 693.05 a7.5 7.5 0 1 0 15 0 a7.5 7.5 0 1 0 -15 0zM562.2 655.55 a7.5 7.5 0 1 0 15 0 a7.5 7.5 0 1 0 -15 0zM562.2 580.55 a7.5 7.5 0 1 0 15 0 a7.5 7.5 0 1 0 -15 0zM886.97 93.05 a7.5 7.5 0 1 0 15 0 a7.5 7.5 0 1 0 -15 0zM951.92 130.55 a7.5 7.5 0 1 0 15 0 a7.5 7.5 0 1 0 -15 0zM951.92 205.55 a7.5 7.5 0 1 0 15 0 a7.5 7.5 0 1 0 -15 0zM886.97 243.05 a7.5 7.5 0 1 0 15 0 a7.5 7.5 0 1 0 -15 0zM822.01 205.55 a7.5 7.5 0 1 0 15 0 a7.5 7.5 0 1 0 -15 0zM822.01 130.55 a7.5 7.5 0 1 0 15 0 a7.5 7.5 0 1 0 -15 0zM1536.51 543.05 a7.5 7.5 0 1 0 15 0 a7.5 7.5 0 1 0 -15 0zM1601.46 580.55 a7.5 7.5 0 1 0 15 0 a7.5 7.5 0 1 0 -15 0zM1601.46 655.55 a7.5 7.5 0 1 0 15 0 a7.5 7.5 0 1 0 -15 0zM1536.51 693.05 a7.5 7.5 0 1 0 15 0 a7.5 7.5 0 1 0 -15 0zM1471.55 655.55 a7.5 7.5 0 1 0 15 0 a7.5 7.5 0 1 0 -15 0zM1471.55 580.55 a7.5 7.5 0 1 0 15 0 a7.5 7.5 0 1 0 -15 0z" fill="rgba(223, 171, 244, 0.63)"></path><path d="M5.51 -121.72L155.34 -35.22L155.34 137.78L5.51 224.28L-144.32 137.78L-144.32 -35.22zM305.16 397.28L454.99 483.78L454.99 656.78L305.16 743.28L155.34 656.78L155.34 483.78z" stroke="rgba(128, 86, 148, 0.56)" stroke-width="2"></path></g><defs><mask id="SvgjsMask1077"><rect width="1440" height="560" fill="#ffffff"></rect></mask></defs></svg>